<?xml version="1.0" encoding="UTF-8"?><svg id="a" xmlns="http://www.w3.org/2000/svg" viewBox="0 0 283.68 278.93"><path d="M232.26,250.36c-.25,8.12-2.68,15.25-8.68,20.91-3.6,3.4-7.83,5.74-12.69,6.66-3.19,.6-6.51,1.17-9.72,.94-6.79-.47-13.07-2.94-19.06-6.08-7.37-3.86-14.63-7.94-22.06-11.68-8-4.02-16.51-6.17-25.55-5.73-6.04,.29-11.87,1.67-17.38,4.07-8.16,3.54-16.17,7.42-24.3,11.02-6.85,3.03-13.93,5.26-21.56,4.72-11.41-.82-22.22-7.45-25.68-20.16-1.33-4.88-1.21-9.87-.29-14.88,2.05-11.03,7.68-20.24,14.49-28.84,4.74-5.99,10.2-11.28,15.86-16.38,7.88-7.11,14.74-15.16,21.42-23.38,5.03-6.19,10.01-12.45,15.95-17.83,5.18-4.69,10.97-8.41,17.82-10.05,4.59-1.1,9.23-1.51,14.07-.9,11.5,1.46,20.16,7.55,27.28,16.1,5.23,6.29,9.99,12.98,14.9,19.54,5.83,7.78,11.95,15.3,18.83,22.19,8.7,8.71,16.23,18.28,21.36,29.57,2.05,4.51,3.73,9.14,4.23,14.13,.2,2.03,.51,4.04,.77,6.06Z"/><path d="M222.67,59.41c-.34,16.44-4.44,31.76-13.92,45.39-5.07,7.29-11.27,13.37-19.8,16.52-9.74,3.59-18.52,1.8-26.1-5.28-4.84-4.52-7.8-10.26-9.91-16.44-2.45-7.18-3.38-14.65-3.2-22.18,.1-4.49,.79-8.98,1.43-13.44,1.33-9.19,4.49-17.77,9.08-25.8,4.59-8.01,10.42-14.92,18.54-19.64,3.78-2.2,7.87-3.47,12.2-3.9,1.18-.12,1.56-.58,1.67-1.67,.33-3.38,.75-6.76,1.05-10.14,.11-1.21,.46-2.11,1.74-2.37,1.2-.25,2.17,.16,2.69,1.28,2.26,4.81,4.55,9.61,6.68,14.47,.63,1.45,1.27,2.7,2.57,3.71,6.4,4.95,9.99,11.77,12.36,19.29,2.07,6.55,3.04,13.31,2.92,20.22Z"/><path d="M136.75,73.2c-.07,7.77-.98,15.25-3.36,22.44-2.25,6.79-5.53,13.04-10.8,18.08-8.72,8.33-20.15,9.63-30.77,3.37-8.16-4.81-13.79-11.97-18.09-20.21-7.27-13.92-9.94-28.84-8.71-44.41,.81-10.28,3.56-20.03,9.71-28.54,1.29-1.78,2.92-3.32,4.34-5.02,.5-.59,1.03-1.29,1.18-2.02,1-4.83,1.9-9.69,2.83-14.53,.24-1.26,.79-2.22,2.25-2.34,1.59-.13,2.19,.92,2.62,2.15,1.01,2.88,1.98,5.77,2.95,8.66,.37,1.1,.98,1.63,2.25,1.43,7.58-1.19,14.05,1.52,19.94,5.92,7.81,5.83,12.99,13.72,16.85,22.51,4.57,10.41,6.59,21.39,6.82,32.52Z"/><path d="M280.56,101.96c-1.31,4.53,.99,8.4,1.93,12.56,.82,3.64,1.32,7.48,1.16,11.19-.61,14.11-6.39,26.27-14.86,37.31-6.86,8.95-15.2,16.13-25.4,21.07-6.76,3.27-13.9,5.05-21.38,4.16-8.77-1.04-15.14-5.81-18.68-13.96-2.79-6.42-2.98-13.2-2.02-20.03,1.53-10.82,5.91-20.5,12.14-29.34,7.88-11.18,17.74-20.07,30.53-25.39,5.81-2.41,11.84-3.56,18.11-3.04,1.9,.16,3.81,.67,5.62,1.31,1.1,.39,1.59,.15,2.06-.75,1.61-3.11,3.3-6.18,4.82-9.33,.62-1.27,1.34-2.01,2.82-1.85,1.49,.16,1.75,1.21,1.86,2.4,.43,4.56,.85,9.13,1.28,13.69Z"/><path d="M80.87,154.45c.2,7.1-1.05,13.42-4.82,18.97-5.55,8.19-13.56,11.13-23.15,10.04-9.97-1.13-18.34-5.81-25.91-12.14-11.31-9.45-19.23-21.24-23.91-35.18C.89,129.61-.37,122.87,.1,115.97c.4-5.91,1.65-11.68,5.38-16.52,1.23-1.6,1.2-3.18,1.04-4.99-.41-4.56-.69-9.13-1.05-13.69-.1-1.3,.58-2.09,1.65-2.49,1.21-.46,2.08,.29,2.73,1.22,.83,1.19,1.55,2.47,2.41,3.63,1.63,2.21,3.3,4.4,5.03,6.53,.33,.41,1.11,.78,1.59,.68,10.1-1.94,19.09,1.15,27.54,6.25,10.37,6.26,18.26,14.99,24.51,25.28,3.56,5.87,6.32,12.1,8.09,18.72,1.25,4.66,2.17,9.42,1.87,13.86Z"/></svg>